<?xml version="1.0" standalone="no"?>
<!DOCTYPE svg PUBLIC "-//W3C//DTD SVG 20010904//EN"
 "http://www.w3.org/TR/2001/REC-SVG-20010904/DTD/svg10.dtd">
<svg version="1.0" xmlns="http://www.w3.org/2000/svg"
 width="100.000000pt" height="100.000000pt" viewBox="0 0 100.000000 100.000000"
 preserveAspectRatio="xMidYMid meet">
<metadata>
Created by potrace 1.15, written by Peter Selinger 2001-2017
</metadata>
<g transform="translate(0.000000,100.000000) scale(0.100000,-0.100000)"
fill="#000000" stroke="none">
<path d="M466 934 c-21 -21 -26 -36 -26 -74 0 -66 34 -100 100 -100 66 0 100
34 100 100 0 66 -34 100 -100 100 -38 0 -53 -5 -74 -26z"/>
<path d="M343 681 c-74 -56 -80 -64 -111 -138 -51 -123 -41 -167 35 -161 36 3
40 6 70 68 17 36 32 62 32 58 1 -4 -8 -56 -20 -115 -19 -102 -23 -112 -75
-179 -41 -55 -54 -79 -54 -106 0 -44 25 -68 73 -68 34 0 42 6 101 81 39 50 67
95 71 117 5 29 8 33 20 21 8 -8 23 -52 35 -99 26 -101 40 -120 90 -120 73 0
85 44 49 183 -16 62 -32 97 -65 142 -37 50 -44 64 -38 90 9 44 14 48 33 31 40
-36 174 -59 199 -34 14 14 16 67 3 87 -5 7 -33 21 -62 31 -42 14 -61 28 -86
61 -79 106 -84 109 -156 109 -65 0 -67 -1 -144 -59z m181 9 c33 -12 33 -37 1
-155 -14 -49 -25 -99 -25 -111 0 -11 21 -48 46 -82 35 -48 49 -79 65 -142 24
-101 24 -110 -1 -110 -20 0 -27 16 -51 127 -11 48 -21 62 -81 118 -77 71 -77
71 -49 185 26 108 13 124 -60 73 -27 -20 -47 -47 -69 -95 -29 -65 -59 -94 -46
-45 19 76 57 136 113 179 94 72 108 77 157 58z"/>
</g>
</svg>
