<?xml version="1.0" standalone="no"?>
<!DOCTYPE svg PUBLIC "-//W3C//DTD SVG 20010904//EN"
 "http://www.w3.org/TR/2001/REC-SVG-20010904/DTD/svg10.dtd">
<svg version="1.0" xmlns="http://www.w3.org/2000/svg"
 width="100.000000pt" height="100.000000pt" viewBox="0 0 100.000000 100.000000"
 preserveAspectRatio="xMidYMid meet">
<metadata>
Created by potrace 1.15, written by Peter Selinger 2001-2017
</metadata>
<g transform="translate(0.000000,100.000000) scale(0.100000,-0.100000)"
fill="#000000" stroke="none">
<path d="M626 934 c-37 -38 -37 -110 0 -148 38 -37 110 -37 148 0 37 38 37
110 0 148 -21 21 -36 26 -74 26 -38 0 -53 -5 -74 -26z"/>
<path d="M291 765 c-85 -62 -91 -69 -91 -110 0 -39 16 -55 53 -55 33 0 56 11
115 56 27 20 49 30 62 27 11 -3 20 -8 20 -10 0 -3 -20 -39 -45 -80 -25 -40
-45 -78 -45 -84 0 -6 -16 -38 -36 -70 l-37 -59 -87 0 c-100 0 -120 -12 -120
-72 0 -62 18 -69 166 -66 l128 3 40 52 c23 28 44 52 49 52 4 1 25 -10 46 -23
l39 -25 -14 -63 c-28 -133 -13 -178 59 -178 28 0 40 6 53 26 19 29 53 186 53
250 1 38 -3 45 -54 88 -50 43 -53 49 -43 72 l11 24 21 -37 22 -38 108 -3 c71
-2 113 1 122 9 18 14 18 83 1 97 -7 6 -44 12 -81 14 l-68 3 -33 80 c-42 102
-75 131 -182 156 -126 30 -147 27 -232 -36z m225 -15 c61 -13 114 -44 114 -67
0 -9 -22 -60 -50 -114 -27 -53 -50 -100 -50 -104 0 -3 28 -33 62 -64 l62 -58
-19 -104 c-22 -127 -23 -129 -46 -129 -24 0 -24 19 -3 128 13 62 14 86 5 95
-6 6 -48 34 -93 62 -107 65 -109 74 -33 196 31 50 54 97 51 104 -4 12 -86 45
-111 45 -6 0 -39 -20 -73 -45 -34 -25 -66 -45 -72 -45 -24 0 -6 22 58 69 73
55 80 56 198 31z m-132 -410 c-34 -52 -55 -60 -149 -60 -86 0 -105 6 -105 30
0 25 19 30 114 30 l82 0 23 41 c23 41 23 41 43 21 20 -19 20 -20 -8 -62z"/>
</g>
</svg>
