<?xml version="1.0" standalone="no"?>
<!DOCTYPE svg PUBLIC "-//W3C//DTD SVG 20010904//EN"
 "http://www.w3.org/TR/2001/REC-SVG-20010904/DTD/svg10.dtd">
<svg version="1.0" xmlns="http://www.w3.org/2000/svg"
 width="100.000000pt" height="100.000000pt" viewBox="0 0 100.000000 100.000000"
 preserveAspectRatio="xMidYMid meet">
<metadata>
Created by potrace 1.15, written by Peter Selinger 2001-2017
</metadata>
<g transform="translate(0.000000,100.000000) scale(0.100000,-0.100000)"
fill="#000000" stroke="none">
<path d="M426 974 c-21 -21 -26 -36 -26 -74 0 -38 5 -53 26 -74 l27 -26 -54
-1 c-32 0 -84 -11 -129 -27 -73 -26 -75 -28 -112 -92 -40 -69 -49 -128 -24
-149 8 -7 32 -11 53 -9 34 3 41 8 64 51 49 90 70 92 39 2 -11 -32 -20 -73 -20
-91 0 -18 -5 -43 -10 -56 -10 -22 -16 -23 -89 -20 -75 3 -79 2 -100 -24 -27
-34 -27 -56 2 -90 23 -27 26 -27 142 -28 l119 -1 22 33 c13 18 25 38 27 45 2
7 8 8 13 4 4 -4 -4 -43 -19 -85 -15 -42 -27 -87 -27 -99 0 -19 -6 -23 -32 -23
-118 -2 -289 -19 -303 -30 -18 -15 -20 -81 -3 -98 9 -9 116 -12 420 -12 395 0
409 1 428 20 22 22 26 67 9 115 -17 47 72 458 107 496 28 30 31 59 6 59 -23 0
-172 -150 -172 -173 0 -22 28 -22 53 0 19 17 20 17 15 -7 -3 -14 -20 -97 -38
-186 l-34 -161 -154 -7 c-85 -3 -156 -5 -157 -4 -2 2 12 41 31 88 18 47 33
102 33 122 1 32 -5 42 -43 74 -42 35 -43 37 -34 73 13 46 14 47 34 27 13 -14
34 -16 112 -14 95 3 97 4 110 31 11 22 11 32 0 55 -12 24 -19 27 -74 30 l-60
3 -33 53 c-33 55 -65 89 -91 99 -8 3 4 6 26 6 60 1 94 38 94 101 0 66 -34 100
-100 100 -38 0 -53 -5 -74 -26z m45 -237 c9 -5 34 -38 55 -73 l39 -63 60 -3
c45 -2 60 -7 60 -18 0 -11 -14 -16 -57 -18 -61 -3 -59 -4 -113 63 -21 27 -25
28 -38 15 -15 -14 -57 -150 -57 -181 0 -9 20 -30 45 -49 25 -19 45 -39 45 -44
1 -27 -75 -216 -86 -216 -26 0 -25 23 5 101 17 44 31 87 31 94 0 8 -28 37 -62
66 -35 28 -67 60 -72 69 -5 12 2 49 24 115 40 119 35 128 -48 100 -52 -18 -60
-25 -85 -72 -26 -49 -47 -68 -47 -43 0 17 48 108 62 117 7 4 46 20 88 35 75
27 114 28 151 5z m249 -662 l0 -35 -300 0 c-293 0 -300 0 -300 20 0 17 7 20
43 21 23 0 132 6 242 13 110 7 226 14 258 15 l57 1 0 -35z"/>
</g>
</svg>
