<?xml version="1.0" standalone="no"?>
<!DOCTYPE svg PUBLIC "-//W3C//DTD SVG 20010904//EN"
 "http://www.w3.org/TR/2001/REC-SVG-20010904/DTD/svg10.dtd">
<svg version="1.0" xmlns="http://www.w3.org/2000/svg"
 width="100.000000pt" height="100.000000pt" viewBox="0 0 100.000000 100.000000"
 preserveAspectRatio="xMidYMid meet">
<metadata>
Created by potrace 1.15, written by Peter Selinger 2001-2017
</metadata>
<g transform="translate(0.000000,100.000000) scale(0.100000,-0.100000)"
fill="#000000" stroke="none">
<path d="M746 894 c-37 -38 -37 -110 0 -148 38 -37 110 -37 148 0 37 38 37
110 0 148 -21 21 -36 26 -74 26 -38 0 -53 -5 -74 -26z"/>
<path d="M309 764 l-56 -56 -84 26 c-107 33 -132 34 -127 5 2 -18 19 -27 91
-48 76 -22 91 -30 104 -56 34 -65 72 -62 143 10 70 71 109 77 52 8 -22 -27
-59 -79 -82 -118 -23 -38 -80 -109 -126 -156 -74 -76 -84 -91 -84 -122 0 -35
-1 -36 -26 -27 -14 6 -37 10 -50 10 -20 0 -25 -4 -22 -21 3 -19 38 -32 298
-110 162 -49 305 -89 317 -89 26 0 39 18 24 33 -6 6 -110 41 -231 77 l-220 66
135 134 135 134 40 -39 c39 -39 40 -40 40 -112 l0 -73 -110 0 c-103 0 -110 -1
-110 -20 0 -20 7 -20 310 -20 303 0 310 0 310 20 0 19 -7 20 -137 20 l-138 0
3 100 4 100 -58 60 -57 60 61 64 c55 57 62 69 62 104 0 33 -6 45 -31 66 -30
25 -34 26 -177 26 l-147 0 -56 -56z m321 3 c67 -23 59 -35 -191 -285 -127
-128 -236 -232 -240 -232 -20 0 -6 19 66 90 47 46 96 110 130 165 29 50 81
120 114 157 34 36 61 69 61 72 0 3 -39 6 -87 6 l-88 0 -46 -52 c-30 -34 -50
-49 -58 -44 -9 6 5 26 50 72 l63 64 96 -1 c52 0 111 -5 130 -12z"/>
</g>
</svg>
