<?xml version="1.0" standalone="no"?>
<!DOCTYPE svg PUBLIC "-//W3C//DTD SVG 20010904//EN"
 "http://www.w3.org/TR/2001/REC-SVG-20010904/DTD/svg10.dtd">
<svg version="1.0" xmlns="http://www.w3.org/2000/svg"
 width="100.000000pt" height="100.000000pt" viewBox="0 0 100.000000 100.000000"
 preserveAspectRatio="xMidYMid meet">
<metadata>
Created by potrace 1.15, written by Peter Selinger 2001-2017
</metadata>
<g transform="translate(0.000000,100.000000) scale(0.100000,-0.100000)"
fill="#000000" stroke="none">
<path d="M506 934 c-37 -37 -37 -110 -1 -146 l25 -25 -40 -6 c-27 -3 -65 -23
-115 -59 -65 -46 -78 -60 -97 -108 -12 -30 -22 -79 -23 -107 -2 -51 -4 -56
-101 -170 -131 -155 -128 -151 -114 -168 7 -8 16 -15 21 -15 4 0 63 65 130
145 67 80 131 147 142 151 10 3 30 29 43 57 14 29 22 43 19 32 -3 -10 -9 -40
-12 -65 -9 -65 -33 -115 -97 -198 -31 -41 -56 -80 -56 -88 0 -11 -7 -10 -29 7
-48 36 -98 0 -71 -51 8 -16 19 -20 48 -18 46 3 181 -30 204 -49 9 -8 29 -13
45 -11 25 3 28 7 28 38 0 34 -1 35 -37 36 -21 0 -40 3 -43 5 -3 3 19 34 48 70
29 35 58 72 63 81 9 17 12 16 41 -10 23 -19 37 -46 51 -95 19 -65 18 -79 -5
-56 -6 6 -23 9 -39 7 -26 -3 -29 -7 -29 -38 0 -31 3 -35 29 -38 16 -2 33 1 39
7 14 14 180 14 194 0 6 -6 23 -9 39 -7 26 3 29 7 29 38 0 31 -3 35 -29 38 -16
2 -33 -1 -39 -7 -13 -13 -50 -15 -42 -2 3 5 -9 61 -26 125 -28 99 -39 123 -79
173 -42 53 -45 61 -37 89 l9 32 35 -20 34 -21 71 22 c39 11 73 20 75 18 1 -2
27 -106 56 -230 29 -125 58 -232 65 -239 9 -9 15 -9 26 2 12 13 6 48 -40 245
-39 166 -53 240 -49 267 14 83 -25 109 -122 79 l-61 -19 -44 45 c-23 25 -56
54 -73 64 l-30 19 46 0 c65 0 99 34 99 100 0 38 -5 53 -26 74 -21 21 -36 26
-74 26 -38 0 -53 -5 -74 -26z m44 -244 c26 -26 25 -61 -5 -150 -14 -40 -25
-78 -25 -84 0 -6 22 -38 49 -71 40 -48 54 -77 75 -150 28 -97 32 -125 16 -125
-12 0 -11 -2 -39 95 -20 68 -23 72 -101 134 -44 36 -83 74 -85 85 -3 12 4 52
15 91 11 38 20 78 20 88 0 59 -106 -6 -140 -87 -30 -69 -38 -40 -10 35 20 53
30 65 93 109 77 54 106 61 137 30z"/>
</g>
</svg>
