<?xml version="1.0" standalone="no"?>
<!DOCTYPE svg PUBLIC "-//W3C//DTD SVG 20010904//EN"
 "http://www.w3.org/TR/2001/REC-SVG-20010904/DTD/svg10.dtd">
<svg version="1.0" xmlns="http://www.w3.org/2000/svg"
 width="100.000000pt" height="100.000000pt" viewBox="0 0 100.000000 100.000000"
 preserveAspectRatio="xMidYMid meet">
<metadata>
Created by potrace 1.15, written by Peter Selinger 2001-2017
</metadata>
<g transform="translate(0.000000,100.000000) scale(0.100000,-0.100000)"
fill="#000000" stroke="none">
<path d="M729 931 c-23 -23 -29 -39 -29 -70 l0 -41 -218 0 c-156 0 -221 -3
-230 -12 -16 -16 -16 -80 0 -96 8 -8 51 -12 126 -12 l114 0 -51 -40 c-71 -56
-85 -80 -79 -139 l5 -49 -94 -94 c-82 -81 -93 -97 -93 -128 l-1 -35 -15 28
c-13 23 -21 28 -47 25 -28 -3 -32 -7 -35 -36 -3 -29 1 -35 26 -44 16 -6 33
-21 38 -32 5 -12 19 -22 31 -24 14 -2 23 -11 25 -25 2 -18 10 -22 38 -22 33 0
35 2 35 35 0 29 -4 36 -22 38 -32 5 -29 22 4 22 22 0 50 22 128 100 l101 101
37 -28 36 -28 1 -87 c0 -79 2 -88 24 -106 l24 -19 -41 1 c-41 1 -42 1 -42 -34
l0 -35 115 0 115 0 0 35 c0 35 0 35 -42 34 -46 -1 -52 6 -28 26 12 10 15 39
15 142 0 143 4 132 -80 202 l-34 28 35 32 c19 17 50 45 70 61 48 42 69 74 69
107 0 27 2 28 51 28 43 0 55 5 80 29 25 25 29 37 29 81 0 44 -4 56 -29 81 -25
25 -37 29 -81 29 -44 0 -56 -4 -81 -29z m-49 -164 c17 -8 26 -22 28 -43 3 -28
-6 -39 -92 -114 -53 -45 -96 -89 -96 -98 0 -10 27 -39 61 -65 33 -27 64 -60
70 -73 10 -28 12 -163 3 -188 -8 -21 -40 -21 -48 0 -3 9 -6 51 -6 94 l0 78
-95 77 c-126 102 -126 110 -10 200 54 42 85 74 85 86 0 18 -9 19 -139 19 -134
0 -161 6 -146 30 9 15 354 13 385 -3z"/>
</g>
</svg>
