<?xml version="1.0" standalone="no"?>
<!DOCTYPE svg PUBLIC "-//W3C//DTD SVG 20010904//EN"
 "http://www.w3.org/TR/2001/REC-SVG-20010904/DTD/svg10.dtd">
<svg version="1.0" xmlns="http://www.w3.org/2000/svg"
 width="100.000000pt" height="100.000000pt" viewBox="0 0 100.000000 100.000000"
 preserveAspectRatio="xMidYMid meet">
<metadata>
Created by potrace 1.15, written by Peter Selinger 2001-2017
</metadata>
<g transform="translate(0.000000,100.000000) scale(0.100000,-0.100000)"
fill="#000000" stroke="none">
<path d="M669 891 c-25 -25 -29 -37 -29 -81 0 -44 4 -56 29 -81 25 -25 37 -29
81 -29 44 0 56 4 81 29 25 25 29 37 29 81 0 44 -4 56 -29 81 -25 25 -37 29
-81 29 -44 0 -56 -4 -81 -29z"/>
<path d="M470 783 c-35 -23 -128 -100 -172 -142 -34 -31 -38 -41 -38 -82 0
-41 4 -51 36 -78 20 -18 61 -49 91 -69 55 -36 55 -37 49 -77 -19 -124 -19
-175 -1 -195 24 -26 86 -27 108 -2 18 19 57 208 57 273 0 40 -10 55 -63 94
l-38 28 27 29 c26 26 54 37 54 21 0 -5 16 -25 35 -45 l34 -38 113 0 c127 0
138 5 138 60 0 52 -13 60 -105 60 l-80 1 -55 75 c-30 42 -64 82 -75 90 -27 19
-85 18 -115 -3z m149 -118 l62 -84 82 -3 c65 -2 82 -6 82 -18 0 -12 -17 -16
-82 -18 l-82 -3 -47 61 c-26 33 -54 60 -63 60 -26 -1 -145 -115 -138 -133 3
-8 31 -34 61 -57 63 -46 63 -44 41 -169 -24 -132 -24 -131 -45 -131 -25 0 -26
23 -5 140 8 47 15 86 15 87 0 1 -43 31 -95 68 -129 90 -129 96 6 204 57 45
111 81 123 81 16 0 40 -24 85 -85z"/>
<path d="M132 424 c-56 -29 -86 -77 -90 -149 -8 -117 51 -186 163 -193 117 -8
186 51 193 163 5 76 -15 124 -66 163 -45 34 -148 42 -200 16z m179 -73 c35
-35 39 -44 39 -91 0 -47 -4 -56 -39 -91 -35 -35 -44 -39 -91 -39 -47 0 -56 4
-91 39 -35 35 -39 44 -39 91 0 47 4 56 39 91 35 35 44 39 91 39 47 0 56 -4 91
-39z"/>
<path d="M692 424 c-56 -29 -86 -77 -90 -149 -8 -117 51 -186 163 -193 117 -8
186 51 193 163 5 76 -15 124 -66 163 -45 34 -148 42 -200 16z m179 -73 c35
-35 39 -44 39 -91 0 -47 -4 -56 -39 -91 -35 -35 -44 -39 -91 -39 -47 0 -56 4
-91 39 -35 35 -39 44 -39 91 0 47 4 56 39 91 35 35 44 39 91 39 47 0 56 -4 91
-39z"/>
</g>
</svg>
