<?xml version="1.0" standalone="no"?>
<!DOCTYPE svg PUBLIC "-//W3C//DTD SVG 20010904//EN"
 "http://www.w3.org/TR/2001/REC-SVG-20010904/DTD/svg10.dtd">
<svg version="1.0" xmlns="http://www.w3.org/2000/svg"
 width="100.000000pt" height="100.000000pt" viewBox="0 0 100.000000 100.000000"
 preserveAspectRatio="xMidYMid meet">
<metadata>
Created by potrace 1.15, written by Peter Selinger 2001-2017
</metadata>
<g transform="translate(0.000000,100.000000) scale(0.100000,-0.100000)"
fill="#000000" stroke="none">
<path d="M782 928 c-17 -27 -36 -39 -101 -62 -96 -33 -94 -25 -56 -206 13 -63
23 -115 22 -116 -43 -18 -100 -62 -117 -89 l-22 -35 -103 0 -104 0 -33 107
-34 108 30 3 c43 5 56 19 56 58 0 43 -14 50 -121 59 -95 8 -119 -2 -119 -51 0
-46 17 -64 60 -64 l39 0 34 -107 33 -108 -27 -8 c-47 -13 -79 -61 -79 -119 0
-44 4 -54 35 -85 l36 -36 -33 -48 c-28 -41 -38 -49 -65 -49 -26 0 -33 -4 -33
-20 0 -18 7 -20 80 -20 72 0 80 2 80 19 0 11 -7 21 -15 23 -22 5 44 97 70 98
11 0 68 9 127 20 l107 21 25 -26 c38 -38 87 -55 159 -55 56 0 66 -3 88 -26 16
-18 20 -28 12 -31 -7 -3 -13 -13 -13 -24 0 -17 8 -19 80 -19 73 0 80 2 80 20
0 16 -7 20 -32 20 -27 1 -40 10 -70 48 -30 38 -35 48 -23 55 8 4 26 27 40 51
35 60 35 152 0 212 -29 49 -96 94 -142 94 l-30 0 -27 127 c-14 69 -23 130 -19
133 5 4 37 17 73 30 51 17 71 30 88 56 12 19 22 43 22 54 0 32 -36 24 -58 -12z
m-4 -458 c129 -79 74 -280 -76 -280 -45 0 -106 25 -97 39 3 5 27 12 55 16 27
4 64 17 82 29 27 18 34 29 36 63 5 68 -18 83 -124 83 -79 0 -85 1 -73 17 45
54 137 69 197 33z m-67 -100 c28 -15 24 -49 -7 -60 -39 -15 -394 -80 -436 -80
-85 0 -111 102 -34 136 39 17 446 20 477 4z"/>
</g>
</svg>
